<?xml version="1.0" encoding="UTF-8" standalone="no"?>
<svg
   viewBox="0 0 207.54 56.21"
   version="1.1"
   id="svg162"
   sodipodi:docname="ddi-cdi-sample-generator"
   inkscape:version="1.2.2 (732a01da63, 2022-12-09, custom)"
   xmlns:inkscape="http://www.inkscape.org/namespaces/inkscape"
   xmlns:sodipodi="http://sodipodi.sourceforge.net/DTD/sodipodi-0.dtd"
   xmlns="http://www.w3.org/2000/svg"
   xmlns:svg="http://www.w3.org/2000/svg">
  <sodipodi:namedview
     id="namedview164"
     pagecolor="#ffffff"
     bordercolor="#000000"
     borderopacity="0.25"
     inkscape:showpageshadow="2"
     inkscape:pageopacity="0.0"
     inkscape:pagecheckerboard="0"
     inkscape:deskcolor="#d1d1d1"
     showgrid="false"
     inkscape:zoom="4.1985413"
     inkscape:cx="103.84559"
     inkscape:cy="28.224089"
     inkscape:window-width="1850"
     inkscape:window-height="1136"
     inkscape:window-x="0"
     inkscape:window-y="0"
     inkscape:window-maximized="1"
     inkscape:current-layer="g155" />
  <defs
     id="defs23">
    <rect
       x="49.952245"
       y="37.58746"
       width="145.89517"
       height="14.446052"
       id="rect378" />
    <style
       id="style18">.cls-1{mix-blend-mode:luminosity;}.cls-2{clip-path:url(#clippath);}.cls-3{fill:#01405b;}.cls-4,.cls-5{fill:#fff;}.cls-6{fill:#49b5c1;}.cls-7{clip-rule:evenodd;fill:none;}.cls-8{fill:#4d8c40;}.cls-8,.cls-9,.cls-10,.cls-5,.cls-11{fill-rule:evenodd;}.cls-9{fill:#7a9a3d;}.cls-10{fill:#057681;}.cls-11{fill:#014f71;}.cls-12{isolation:isolate;}</style>
    <clipPath
       id="clippath">
      <path
         class="cls-7"
         d="M75.99,13.95c0,7.31-5.92,13.23-13.23,13.23s-13.23-5.92-13.23-13.23S55.45,.71,62.76,.71s13.23,5.92,13.23,13.23Z"
         id="path20" />
    </clipPath>
  </defs>
  <g
     class="cls-12"
     id="g160">
    <g
       id="Layer_1">
      <g
         id="g157">
        <rect
           class="cls-6"
           x=".78"
           y="32.18"
           width="206.07"
           height="23.46"
           rx="11.73"
           ry="11.73"
           id="rect25" />
        <g
           class="cls-1"
           id="g147">
          <g
             id="g43">
            <g
               id="g31">
              <path
                 class="cls-10"
                 d="M103.55,14.03c0,7.31-5.92,13.23-13.23,13.23s-13.23-5.92-13.23-13.23S83.02,.8,90.32,.8s13.23,5.92,13.23,13.23Z"
                 id="path27" />
              <path
                 class="cls-8"
                 d="M130.73,14.03c0,7.31-5.92,13.23-13.23,13.23s-13.23-5.92-13.23-13.23S110.19,.8,117.5,.8s13.23,5.92,13.23,13.23Z"
                 id="path29" />
            </g>
            <path
               class="cls-9"
               d="M158.1,14.03c0,7.31-5.92,13.23-13.23,13.23s-13.23-5.92-13.23-13.23,5.92-13.23,13.23-13.23,13.23,5.92,13.23,13.23Z"
               id="path33" />
            <g
               id="g41">
              <path
                 class="cls-4"
                 d="M89.91,21.81h-5.94V6.57h5.94c4.79,0,8.1,3.29,8.1,7.58v.04c0,4.29-3.31,7.62-8.1,7.62Zm4.59-7.62c0-2.7-1.85-4.6-4.59-4.6h-2.59v9.19h2.59c2.74,0,4.59-1.85,4.59-4.55v-.04Z"
                 id="path35" />
              <path
                 class="cls-4"
                 d="M117.48,21.81h-5.95V6.57h5.95c4.79,0,8.1,3.29,8.1,7.58v.04c0,4.29-3.31,7.62-8.1,7.62Zm4.59-7.62c0-2.7-1.85-4.6-4.59-4.6h-2.59v9.19h2.59c2.74,0,4.59-1.85,4.59-4.55v-.04Z"
                 id="path37" />
              <path
                 class="cls-4"
                 d="M142.72,21.81V6.57h3.35v15.24h-3.35Z"
                 id="path39" />
            </g>
          </g>
          <g
             id="g145">
            <path
               class="cls-11"
               d="M75.99,13.95c0,7.31-5.92,13.23-13.23,13.23s-13.23-5.92-13.23-13.23S55.45,.71,62.76,.71s13.23,5.92,13.23,13.23Z"
               id="path45" />
            <g
               class="cls-2"
               clip-path="url(#clippath)"
               id="g143">
              <g
                 id="g141">
                <g
                   id="g51">
                  <path
                     class="cls-5"
                     d="M60.06,19.38c-.07-.39-.17-.77-.31-1.14l2-1.93-.67-1.17-2.67,.76c-.26-.3-.53-.58-.83-.83l.76-2.67-1.17-.67-1.93,2c-.37-.13-.75-.23-1.14-.3l-.67-2.69h-1.35l-.67,2.69c-.39,.07-.77,.17-1.14,.3l-1.93-2-1.17,.67,.76,2.67c-.3,.26-.58,.53-.83,.83l-2.67-.76h0l-.67,1.17,2,1.93c-.13,.37-.23,.75-.3,1.14l-2.69,.67v1.35l2.69,.67c.07,.39,.17,.77,.3,1.14l-2,1.93,.67,1.17,2.67-.77,.83,.83-.77,2.67,1.17,.67,1.93-2c.37,.13,.75,.23,1.14,.3l.67,2.7h1.35l.67-2.7c.39-.07,.77-.17,1.14-.3l1.93,2,1.17-.67-.77-2.67s.58-.53,.83-.83l2.67,.77,.67-1.17-2-1.93c.13-.37,.23-.75,.31-1.14l2.69-.67v-1.35l-2.69-.67h0Zm-3.25,1.35c0,2.24-1.82,4.06-4.06,4.06s-4.06-1.82-4.06-4.06,1.82-4.06,4.06-4.06,4.06,1.82,4.06,4.06Z"
                     id="path47" />
                  <path
                     class="cls-4"
                     d="M53.57,30.91h-1.63l-.68-2.72c-.32-.06-.63-.15-.94-.25l-1.95,2.02-1.42-.82,.78-2.7-.68-.68-2.7,.78-.82-1.42,2.02-1.95c-.1-.3-.19-.62-.25-.94l-2.72-.68v-1.64l2.72-.68c.06-.32,.15-.63,.25-.94l-2.01-1.95,.82-1.41,2.7,.77c.21-.24,.44-.47,.69-.69l-.77-2.7,1.42-.82,1.95,2.01c.31-.1,.62-.19,.94-.25l.68-2.72h1.63l.68,2.72c.32,.06,.63,.15,.94,.25l1.95-2.01,1.42,.82-.77,2.7c.24,.21,.47,.44,.69,.69l2.7-.77,.82,1.41-2.01,1.95c.1,.31,.19,.62,.25,.94l2.72,.68v1.64l-2.72,.68c-.06,.32-.15,.63-.25,.94l2.01,1.95-.82,1.42-2.7-.77c-.21,.23-.54,.54-.69,.68l.77,2.7-1.42,.82-1.95-2.02c-.31,.1-.62,.19-.94,.25l-.68,2.72Zm-1.35-.37h1.06l.67-2.67,.12-.02c.37-.07,.75-.17,1.11-.3l.11-.04,1.91,1.98,.92-.53-.76-2.64,.08-.08s.57-.53,.82-.82l.08-.09,2.65,.76,.53-.92-1.98-1.91,.04-.11c.13-.36,.23-.73,.3-1.11l.02-.12,2.67-.67v-1.06l-2.67-.67-.02-.12c-.07-.38-.17-.75-.3-1.11l-.04-.11,1.98-1.91-.53-.92-2.65,.76-.08-.09c-.25-.29-.52-.56-.81-.81l-.09-.08,.76-2.65-.92-.53-1.91,1.98-.11-.04c-.36-.13-.73-.23-1.11-.3l-.12-.02-.67-2.67h-1.06l-.67,2.67-.12,.02c-.38,.07-.75,.17-1.11,.3l-.11,.04-1.91-1.98-.92,.53,.76,2.65-.09,.08c-.29,.25-.57,.52-.81,.81l-.08,.09-2.65-.76-.53,.92,1.98,1.91-.04,.11c-.13,.36-.23,.73-.3,1.11l-.02,.12-2.67,.67v1.06l2.67,.67,.02,.12c.07,.38,.17,.75,.3,1.11l.04,.11-1.98,1.91,.53,.92,2.64-.76,.99,.98-.76,2.64,.92,.53,1.91-1.98,.11,.04c.36,.13,.73,.23,1.11,.3l.12,.02,.67,2.67Zm.53-5.57c-2.34,0-4.24-1.9-4.24-4.24s1.9-4.24,4.24-4.24,4.24,1.9,4.24,4.24-1.9,4.24-4.24,4.24Zm0-8.12c-2.14,0-3.87,1.74-3.87,3.87s1.74,3.87,3.87,3.87,3.88-1.74,3.88-3.87-1.74-3.87-3.88-3.87Z"
                     id="path49" />
                </g>
                <g
                   id="g97">
                  <g
                     id="g57">
                    <path
                       class="cls-5"
                       d="M73.8,13.02c0,3.05-2.48,5.53-5.53,5.53s-5.53-2.48-5.53-5.53,2.48-5.53,5.53-5.53,5.53,2.48,5.53,5.53Z"
                       id="path53" />
                    <path
                       class="cls-4"
                       d="M68.27,18.73c-3.15,0-5.71-2.56-5.71-5.71s2.56-5.71,5.71-5.71,5.71,2.56,5.71,5.71-2.56,5.71-5.71,5.71Zm0-11.06c-2.95,0-5.34,2.4-5.34,5.35s2.4,5.35,5.34,5.35,5.35-2.4,5.35-5.35-2.4-5.35-5.35-5.35Z"
                       id="path55" />
                  </g>
                  <polygon
                     class="cls-5"
                     points="69.13 7.53 68.66 5.63 67.89 5.63 67.41 7.53 67.11 7.46 67.64 5.32 68.9 5.32 69.43 7.46 69.13 7.53"
                     id="polygon59" />
                  <polyline
                     class="cls-5"
                     points="69.28 7.49 68.78 5.48 67.77 5.48 67.26 7.49"
                     id="polyline61" />
                  <polygon
                     class="cls-5"
                     points="62.7 14.18 60.57 13.65 60.57 12.4 62.7 11.86 62.78 12.16 60.88 12.64 60.88 13.41 62.78 13.88 62.7 14.18"
                     id="polygon63" />
                  <polyline
                     class="cls-5"
                     points="62.74 12.01 60.72 12.52 60.72 13.53 62.74 14.03"
                     id="polyline65" />
                  <polygon
                     class="cls-5"
                     points="73.85 14.18 73.78 13.88 75.68 13.41 75.68 12.64 73.78 12.16 73.85 11.86 75.99 12.4 75.99 13.65 73.85 14.18"
                     id="polygon67" />
                  <polyline
                     class="cls-5"
                     points="73.82 14.03 75.83 13.53 75.83 12.52 73.82 12.01"
                     id="polyline69" />
                  <polygon
                     class="cls-5"
                     points="73.02 9.96 72.75 9.8 73.78 8.13 73.25 7.58 71.55 8.56 71.4 8.29 73.3 7.19 74.18 8.09 73.02 9.96"
                     id="polygon71" />
                  <polyline
                     class="cls-5"
                     points="72.88 9.88 73.98 8.11 73.28 7.38 71.48 8.43"
                     id="polyline73" />
                  <polygon
                     class="cls-5"
                     points="73.3 18.85 71.4 17.74 71.55 17.47 73.25 18.46 73.78 17.91 72.75 16.24 73.02 16.08 74.18 17.95 73.3 18.85"
                     id="polygon75" />
                  <polyline
                     class="cls-5"
                     points="71.48 17.61 73.28 18.65 73.98 17.93 72.88 16.16"
                     id="polyline77" />
                  <polygon
                     class="cls-5"
                     points="63.55 9.79 62.39 7.92 63.26 7.02 65.17 8.12 65.01 8.39 63.32 7.41 62.78 7.96 63.81 9.62 63.55 9.79"
                     id="polygon79" />
                  <polyline
                     class="cls-5"
                     points="65.09 8.26 63.29 7.21 62.58 7.94 63.68 9.71"
                     id="polyline81" />
                  <polygon
                     class="cls-5"
                     points="63.26 18.85 62.39 17.95 63.55 16.08 63.81 16.24 62.78 17.91 63.32 18.46 65.01 17.47 65.17 17.74 63.26 18.85"
                     id="polygon83" />
                  <polyline
                     class="cls-5"
                     points="63.68 16.16 62.58 17.93 63.29 18.65 65.09 17.61"
                     id="polyline85" />
                  <polygon
                     class="cls-5"
                     points="68.9 20.73 67.64 20.73 67.11 18.59 67.41 18.52 67.89 20.42 68.66 20.42 69.13 18.52 69.43 18.59 68.9 20.73"
                     id="polygon87" />
                  <polyline
                     class="cls-5"
                     points="67.26 18.55 67.77 20.57 68.78 20.57 69.28 18.55"
                     id="polyline89" />
                  <g
                     id="g95">
                    <path
                       class="cls-11"
                       d="M70.86,12.92c0,1.43-1.16,2.59-2.59,2.59s-2.59-1.16-2.59-2.59,1.16-2.59,2.59-2.59,2.59,1.16,2.59,2.59Z"
                       id="path91" />
                    <path
                       class="cls-4"
                       d="M68.27,15.69c-1.53,0-2.77-1.24-2.77-2.77s1.24-2.77,2.77-2.77,2.77,1.24,2.77,2.77-1.24,2.77-2.77,2.77Zm0-5.17c-1.33,0-2.4,1.08-2.4,2.4s1.08,2.4,2.4,2.4,2.4-1.08,2.4-2.4-1.08-2.4-2.4-2.4Z"
                       id="path93" />
                  </g>
                </g>
                <g
                   id="g139">
                  <g
                     id="g103">
                    <path
                       class="cls-5"
                       d="M60.36,3.89c0,2.59-2.1,4.7-4.7,4.7s-4.7-2.1-4.7-4.7,2.1-4.7,4.7-4.7,4.7,2.1,4.7,4.7Z"
                       id="path99" />
                    <path
                       class="cls-4"
                       d="M55.66,8.77c-2.69,0-4.88-2.19-4.88-4.88s2.19-4.88,4.88-4.88,4.88,2.19,4.88,4.88-2.19,4.88-4.88,4.88Zm0-9.4c-2.49,0-4.52,2.03-4.52,4.52s2.03,4.51,4.52,4.51,4.52-2.03,4.52-4.51-2.03-4.52-4.52-4.52Z"
                       id="path101" />
                  </g>
                  <polygon
                     class="cls-5"
                     points="50.89 5.05 48.93 4.57 48.93 3.22 50.89 2.73 51.04 3.34 49.56 3.71 49.56 4.08 51.04 4.45 50.89 5.05"
                     id="polygon105" />
                  <polyline
                     class="cls-5"
                     points="50.96 3.03 49.25 3.46 49.25 4.32 50.96 4.75"
                     id="polyline107" />
                  <polygon
                     class="cls-5"
                     points="60.45 5.05 60.3 4.45 61.78 4.08 61.78 3.71 60.3 3.34 60.45 2.73 62.4 3.22 62.4 4.56 60.45 5.05"
                     id="polygon109" />
                  <polyline
                     class="cls-5"
                     points="60.37 4.75 62.09 4.32 62.09 3.46 60.37 3.03"
                     id="polyline111" />
                  <polygon
                     class="cls-5"
                     points="59.85 1.38 59.32 1.06 60.12 -.24 59.86 -.51 58.54 .26 58.23 -.28 59.97 -1.29 60.91 -.33 59.85 1.38"
                     id="polygon113" />
                  <polyline
                     class="cls-5"
                     points="59.58 1.22 60.51 -.28 59.92 -.9 58.39 -.01"
                     id="polyline115" />
                  <polygon
                     class="cls-5"
                     points="59.97 9.07 58.23 8.06 58.54 7.52 59.86 8.29 60.12 8.02 59.32 6.72 59.85 6.39 60.91 8.11 59.97 9.07"
                     id="polygon117" />
                  <polyline
                     class="cls-5"
                     points="58.39 7.79 59.92 8.68 60.51 8.06 59.58 6.56"
                     id="polyline119" />
                  <polygon
                     class="cls-5"
                     points="51.5 1.24 50.43 -.47 51.37 -1.44 53.98 0 52.8 .11 51.48 -.65 51.22 -.39 52.03 .91 51.5 1.24"
                     id="polygon121" />
                  <polyline
                     class="cls-5"
                     points="52.96 -.16 51.43 -1.05 50.83 -.43 51.76 1.07"
                     id="polyline123" />
                  <polygon
                     class="cls-5"
                     points="51.37 9.07 50.43 8.11 51.5 6.39 52.03 6.72 51.22 8.02 51.48 8.29 52.8 7.52 53.11 8.06 51.37 9.07"
                     id="polygon125" />
                  <polyline
                     class="cls-5"
                     points="51.76 6.56 50.83 8.06 51.43 8.68 52.96 7.79"
                     id="polyline127" />
                  <polygon
                     class="cls-5"
                     points="56.33 10.62 54.99 10.62 54.5 8.67 55.11 8.51 55.48 10 55.85 10 56.22 8.51 56.82 8.67 56.33 10.62"
                     id="polygon129" />
                  <polyline
                     class="cls-5"
                     points="54.8 8.59 55.23 10.31 56.09 10.31 56.52 8.59"
                     id="polyline131" />
                  <g
                     id="g137">
                    <path
                       class="cls-11"
                       d="M57.86,3.8c0,1.21-.98,2.2-2.2,2.2s-2.2-.98-2.2-2.2,.98-2.2,2.2-2.2,2.2,.99,2.2,2.2Z"
                       id="path133" />
                    <path
                       class="cls-4"
                       d="M55.66,6.18c-1.31,0-2.38-1.07-2.38-2.38s1.07-2.38,2.38-2.38,2.38,1.07,2.38,2.38-1.07,2.38-2.38,2.38Zm0-4.4c-1.11,0-2.02,.91-2.02,2.02s.9,2.02,2.02,2.02,2.02-.91,2.02-2.02-.9-2.02-2.02-2.02Z"
                       id="path135" />
                  </g>
                </g>
              </g>
            </g>
          </g>
        </g>
        <g
           id="g155">
          <text
             xml:space="preserve"
             id="text376"
             style="white-space:pre;shape-inside:url(#rect378);fill:#01405b;fill-opacity:1" />
          <text
             xml:space="preserve"
             style="font-size:13.3333px;fill:#01405b;fill-opacity:1"
             x="9.4322214"
             y="48.447815"
             id="text919"><tspan
               sodipodi:role="line"
               id="tspan917"
               x="9.4322214"
               y="48.447815"
               style="font-style:normal;font-variant:normal;font-weight:bold;font-stretch:normal;font-size:13.3333px;font-family:sans-serif;-inkscape-font-specification:'sans-serif Bold';fill:#ffffff">CDI SAMPLE GENERATOR</tspan></text>
        </g>
      </g>
    </g>
  </g>
</svg>
